<svg width="99" height="99" viewBox="0 0 99 99" fill="none" xmlns="http://www.w3.org/2000/svg">
<circle cx="49.5" cy="49.5" r="46" fill="#2378C9" stroke="#67A9E9" stroke-width="7"/>
<g clip-path="url(#clip0_1_129)">
<path d="M46.4023 55.6076L37.2911 46.6065C36.6972 46.0126 35.9075 45.6855 35.0677 45.6855C34.4908 45.6855 33.9376 45.8398 33.4552 46.129V35.2932C33.4552 34.7401 33.3111 34.2201 33.0594 33.7682C33.2252 33.7118 33.4 33.6808 33.5792 33.6808C34.4684 33.6808 35.1917 34.4042 35.1917 35.2933V43.2575C35.1917 43.6805 35.5346 44.0234 35.9576 44.0234C36.3806 44.0234 36.7235 43.6805 36.7235 43.2575V35.2933C36.7235 33.5595 35.3131 32.1489 33.5792 32.1489C32.9955 32.1489 32.4331 32.3093 31.9446 32.6075C31.4682 32.3167 30.9089 32.1489 30.3111 32.1489C28.5773 32.1489 27.1667 33.5595 27.1667 35.294L27.1801 50.3973C27.1807 51.074 27.4312 52.0292 27.7628 52.6191C27.7682 52.6286 27.7736 52.6379 27.7795 52.6471L37.2136 67.8749C37.4125 68.2372 37.5919 68.9273 37.5919 69.334V72.2205C37.5919 72.6435 37.9349 72.9864 38.3579 72.9864C38.7809 72.9864 39.1238 72.6435 39.1238 72.2205V69.334C39.1238 68.6571 38.8736 67.7016 38.5419 67.1115C38.5366 67.102 38.5311 67.0927 38.5253 67.0836L29.091 51.8556C28.892 51.493 28.7123 50.8027 28.7118 50.3959L28.6985 35.2932C28.6985 34.4041 29.4218 33.6807 30.3109 33.6807C31.2001 33.6807 31.9233 34.4041 31.9233 35.2932V48.83C31.9233 48.8491 31.9248 48.8677 31.9262 48.8864C31.9402 49.6727 32.2457 50.4546 32.8443 51.0533L40.1624 58.3714C40.4615 58.6705 40.9465 58.6705 41.2456 58.3714C41.5447 58.0722 41.5447 57.5872 41.2456 57.2882L33.9276 49.9701C33.6231 49.6656 33.4553 49.2606 33.4553 48.8298C33.4553 48.3991 33.6231 47.9942 33.9276 47.6896C34.2321 47.385 34.6371 47.2173 35.0678 47.2173C35.4985 47.2173 35.9034 47.3851 36.2112 47.6929L45.3224 56.694C46.3356 57.7072 47.1916 59.7738 47.1916 61.2067V72.2339C47.1916 72.6569 47.5345 72.9998 47.9575 72.9998C48.3805 72.9998 48.7234 72.6569 48.7234 72.2339V61.2067C48.7234 59.3687 47.7053 56.9106 46.4023 55.6076Z" fill="white"/>
<path d="M69.6891 32.1488C69.0914 32.1488 68.5321 32.3166 68.0557 32.6073C67.5672 32.3092 67.0047 32.1488 66.4211 32.1488C64.6873 32.1488 63.2767 33.5594 63.2767 35.2932V43.2573C63.2767 43.6803 63.6197 44.0233 64.0427 44.0233C64.4657 44.0233 64.8086 43.6803 64.8086 43.2573V35.2932C64.8086 34.4041 65.532 33.6807 66.421 33.6807C66.6003 33.6807 66.7751 33.7117 66.9408 33.7681C66.689 34.2201 66.545 34.74 66.545 35.2931V46.1289C66.0626 45.8398 65.5094 45.6854 64.9325 45.6854C64.0925 45.6854 63.3029 46.0125 62.7124 46.6031L53.5946 55.6108C52.2949 56.9105 51.2767 59.3686 51.2767 61.2066V72.234C51.2767 72.657 51.6197 72.9999 52.0427 72.9999C52.4657 72.9999 52.8086 72.657 52.8086 72.234V61.2068C52.8086 59.7739 53.6645 57.7074 54.6745 56.6974L63.7923 47.6897C64.0968 47.3852 64.5018 47.2174 64.9325 47.2174C65.3631 47.2174 65.768 47.3852 66.0726 47.6897C66.3771 47.9942 66.545 48.3992 66.545 48.8299C66.545 49.2607 66.3771 49.6656 66.0726 49.9702L58.7546 57.2882C58.4555 57.5874 58.4555 58.0724 58.7546 58.3714C59.0538 58.6706 59.5387 58.6706 59.8378 58.3714L67.1558 51.0534C67.7545 50.4547 68.06 49.6727 68.0739 48.8865C68.0752 48.8678 68.0768 48.849 68.0768 48.83V35.2933C68.0768 34.4041 68.8002 33.6808 69.6892 33.6808C70.5784 33.6808 71.3017 34.4041 71.3017 35.2925L71.2884 50.396C71.2881 50.8029 71.1082 51.4932 70.9092 51.8558L61.4751 67.0835C61.4694 67.0927 61.4639 67.1021 61.4585 67.1115C61.1268 67.7015 60.8766 68.6569 60.8766 69.334V72.2205C60.8766 72.6435 61.2196 72.9864 61.6426 72.9864C62.0656 72.9864 62.4085 72.6435 62.4085 72.2205V69.334C62.4085 68.9272 62.588 68.2372 62.7868 67.8749L72.2209 52.6471C72.2266 52.6379 72.2321 52.6285 72.2375 52.6191C72.5692 52.0291 72.8197 51.0738 72.8203 50.3972L72.8336 35.2932C72.8334 33.5595 71.423 32.1488 69.6891 32.1488Z" fill="white"/>
<path d="M60.9787 30.6169C61.4017 30.6169 61.7447 30.274 61.7447 29.851V25.7658C61.7447 25.3428 61.4017 24.9999 60.9787 24.9999H39.0214C38.5984 24.9999 38.2554 25.3428 38.2554 25.7658V29.8509C38.2554 30.2739 38.5984 30.6168 39.0214 30.6168H39.2767V32.1487H39.0214C38.5984 32.1487 38.2554 32.4916 38.2554 32.9146V36.9999C38.2554 37.4229 38.5984 37.7658 39.0214 37.7658H39.2767V39.2977H39.0214C38.5984 39.2977 38.2554 39.6406 38.2554 40.0636V44.1487C38.2554 44.5717 38.5984 44.9146 39.0214 44.9146H60.9788C61.4018 44.9146 61.7448 44.5717 61.7448 44.1487V40.0636C61.7448 39.6406 61.4018 39.2977 60.9788 39.2977H60.7236V37.7658H60.9788C61.4018 37.7658 61.7448 37.4229 61.7448 36.9999V32.9148C61.7448 32.4918 61.4018 32.1489 60.9788 32.1489H60.7236V30.617H60.9787V30.6169ZM60.2128 43.3828H39.7873V40.8297H60.2128V43.3828ZM60.2128 36.2339H56.8937C56.4707 36.2339 56.1277 36.5769 56.1277 36.9999C56.1277 37.4229 56.4707 37.7658 56.8937 37.7658H59.1916V39.2977H40.8085V37.7658H53.8298C54.2528 37.7658 54.5958 37.4229 54.5958 36.9999C54.5958 36.5769 54.2528 36.2339 53.8298 36.2339H39.7873V33.6808H60.2128V36.2339ZM40.8085 32.1488V30.6169H59.1915V32.1488H40.8085ZM60.2128 29.0849H39.7873V26.5318H60.2128V29.0849Z" fill="white"/>
</g>
<defs>
<clipPath id="clip0_1_129">
<rect width="48" height="48" fill="white" transform="translate(26 24.9999)"/>
</clipPath>
</defs>
</svg>
