<svg width="99" height="99" viewBox="0 0 99 99" fill="none" xmlns="http://www.w3.org/2000/svg">
<circle cx="49.5" cy="49.4999" r="46" fill="#2378C9" stroke="#67A9E9" stroke-width="7"/>
<g clip-path="url(#clip0_1_145)">
<path d="M54.7542 52.6936C56.5803 49.5242 57.1808 45.7953 56.4422 42.2128C55.7035 38.6303 53.677 35.4431 50.7463 33.2544C50.7353 31.9747 50.3896 30.7202 49.7434 29.6156C49.0972 28.511 48.1731 27.5948 47.063 26.9581C45.6778 26.1669 44.1103 25.7505 42.515 25.7499H40.985C39.3897 25.7505 37.8222 26.1669 36.437 26.9581C35.3263 27.5951 34.4019 28.5119 33.7557 29.6172C33.1095 30.7225 32.764 31.9778 32.7537 33.2581C30.5875 34.8813 28.9013 37.0609 27.8742 39.5653C26.847 42.0698 26.5172 44.8056 26.9199 47.4824C27.3225 50.1592 28.4425 52.677 30.1609 54.7684C31.8794 56.8599 34.1321 58.447 36.68 59.3611L35.315 61.7499H29C28.4033 61.7499 27.831 61.9869 27.409 62.4089C26.9871 62.8308 26.75 63.4031 26.75 63.9999V69.9999C26.75 70.5966 26.9871 71.1689 27.409 71.5909C27.831 72.0128 28.4033 72.2499 29 72.2499H48.5C49.0967 72.2499 49.669 72.0128 50.091 71.5909C50.5129 71.1689 50.75 70.5966 50.75 69.9999V63.9999C50.75 63.4031 50.5129 62.8308 50.091 62.4089C49.669 61.9869 49.0967 61.7499 48.5 61.7499H42.185L41.3202 60.2364C41.4635 60.2409 41.6067 60.2499 41.75 60.2499C44.3634 60.2498 46.9308 59.5614 49.1937 58.2541L62.0375 71.0979C62.7768 71.8259 63.7739 72.2323 64.8116 72.2283C65.8492 72.2244 66.8432 71.8105 67.577 71.0768C68.3107 70.3432 68.7248 69.3492 68.7288 68.3116C68.7329 67.274 68.3267 66.2768 67.5988 65.5374L54.7542 52.6936ZM37.181 28.2601C38.3397 27.5987 39.6508 27.2506 40.985 27.2499H42.515C43.8492 27.2506 45.1603 27.5987 46.319 28.2601C47.6527 29.0175 48.6315 30.2731 49.0404 31.7514C49.4493 33.2296 49.2549 34.8098 48.5 36.1449V35.3626C48.5013 34.3259 48.1943 33.3122 47.618 32.4504L46.874 31.3336C46.8174 31.2488 46.7441 31.1764 46.6586 31.1208C46.573 31.0653 46.4771 31.0278 46.3766 31.0106C46.276 30.9934 46.1731 30.9968 46.0739 31.0208C45.9748 31.0448 45.8816 31.0887 45.8 31.1499L44.8002 31.8999C43.6305 32.7737 42.2103 33.2471 40.7502 33.2499H38.75C37.8839 33.2515 37.045 33.5523 36.3753 34.1015C35.7056 34.6506 35.2462 35.4144 35.075 36.2634C34.678 35.6022 34.4174 34.8682 34.3085 34.1047C34.1996 33.3412 34.2446 32.5636 34.4409 31.8178C34.6371 31.072 34.9807 30.373 35.4513 29.762C35.9219 29.151 36.51 28.6403 37.181 28.2601ZM38.75 44.5374V46.8624L37.5448 47.0634C36.0556 47.3158 34.6877 48.0424 33.6447 49.1349C32.8699 47.5354 32.5893 45.7412 32.8387 43.9815C33.0881 42.2218 33.8562 40.5763 35.045 39.2551C35.173 40.3748 35.579 41.4446 36.2261 42.3672C36.8732 43.2898 37.7409 44.0358 38.75 44.5374ZM40.25 45.0759C41.2365 45.3079 42.2635 45.3079 43.25 45.0759V47.0716C42.7856 47.309 42.2715 47.4328 41.75 47.4328C41.2285 47.4328 40.7144 47.309 40.25 47.0716V45.0759ZM41.75 43.7499C40.3581 43.7483 39.0237 43.1947 38.0394 42.2104C37.0552 41.2262 36.5016 39.8918 36.5 38.4999V36.9999C36.5 36.4031 36.7371 35.8308 37.159 35.4089C37.581 34.9869 38.1533 34.7499 38.75 34.7499H40.7502C42.5347 34.7459 44.2703 34.1673 45.7003 33.0999L46.0648 32.8261L46.3693 33.2821C46.7812 33.8977 47.0007 34.6219 47 35.3626V38.4999C46.9984 39.8918 46.4448 41.2262 45.4606 42.2104C44.4763 43.1947 43.1419 43.7483 41.75 43.7499ZM37.7907 48.5454L39.3657 48.2829C40.0883 48.7091 40.9119 48.9339 41.7507 48.9339C42.5896 48.9339 43.4132 48.7091 44.1357 48.2829L45.7108 48.5454C47.0239 48.767 48.2125 49.4562 49.0573 50.4856C48.2275 51.6498 47.1316 52.5988 45.8608 53.2536C44.59 53.9084 43.1811 54.25 41.7515 54.25C40.3219 54.25 38.913 53.9084 37.6422 53.2536C36.3714 52.5988 35.2755 51.6498 34.4457 50.4856C35.2901 49.4565 36.4782 48.7674 37.7907 48.5454ZM49.8545 49.1371C48.8115 48.0446 47.4437 47.3181 45.9545 47.0656L44.75 46.8646V44.5396C45.7591 44.0381 46.6268 43.292 47.2739 42.3694C47.921 41.4468 48.327 40.377 48.455 39.2574C49.6441 40.5789 50.4124 42.2248 50.6617 43.985C50.911 45.7451 50.6299 47.5397 49.8545 49.1394V49.1371ZM48.5 63.2499C48.6989 63.2499 48.8897 63.3289 49.0303 63.4695C49.171 63.6102 49.25 63.801 49.25 63.9999V69.9999C49.25 70.1988 49.171 70.3896 49.0303 70.5302C48.8897 70.6709 48.6989 70.7499 48.5 70.7499H29C28.8011 70.7499 28.6103 70.6709 28.4697 70.5302C28.329 70.3896 28.25 70.1988 28.25 69.9999V63.9999C28.25 63.801 28.329 63.6102 28.4697 63.4695C28.6103 63.3289 28.8011 63.2499 29 63.2499H35.75C35.8819 63.2501 36.0115 63.2156 36.1258 63.1498C36.2401 63.0839 36.335 62.9891 36.401 62.8749L38.75 58.7619L41.099 62.8719C41.1646 62.9867 41.2593 63.0821 41.3736 63.1485C41.488 63.2149 41.6178 63.2498 41.75 63.2499H48.5ZM40.4307 58.6794L39.401 56.8794C39.3299 56.7717 39.2333 56.6833 39.1196 56.6222C39.006 56.561 38.879 56.529 38.75 56.529C38.621 56.529 38.494 56.561 38.3804 56.6222C38.2667 56.6833 38.1701 56.7717 38.099 56.8794L37.4375 58.0359C35.1785 57.2764 33.1612 55.9318 31.5908 54.1392C30.0205 52.3465 28.9532 50.1697 28.4976 47.8304C28.0421 45.4912 28.2146 43.0729 28.9975 40.822C29.7804 38.5711 31.1459 36.5678 32.9548 35.0161C33.1875 35.9873 33.6157 36.9009 34.2133 37.7011L34.3235 37.8511C32.8552 39.3196 31.8552 41.1905 31.4502 43.2273C31.0451 45.2641 31.2531 47.3752 32.0479 49.2938C32.8426 51.2124 34.1884 52.8522 35.9151 54.0059C37.6418 55.1596 39.6718 55.7754 41.7485 55.7754C43.8252 55.7754 45.8552 55.1596 47.5819 54.0059C49.3086 52.8522 50.6544 51.2124 51.4491 49.2938C52.2439 47.3752 52.4519 45.2641 52.0468 43.2273C51.6418 41.1905 50.6418 39.3196 49.1735 37.8511L49.2838 37.7011C49.8813 36.9009 50.3095 35.9873 50.5422 35.0161C52.6338 36.8117 54.1252 39.2048 54.816 41.8734C55.5068 44.542 55.3638 47.3581 54.4062 49.943C53.4486 52.5279 51.7224 54.7575 49.4598 56.332C47.1971 57.9065 44.5066 58.7503 41.75 58.7499C41.3097 58.7499 40.868 58.7221 40.4307 58.6794ZM64.8185 70.7499C64.4989 70.7509 64.1824 70.6885 63.8871 70.5662C63.5919 70.4438 63.3239 70.2641 63.0988 70.0374L50.4823 57.4216C51.8072 56.4687 52.9688 55.3071 53.9217 53.9821L66.5375 66.5979C66.8776 66.938 67.1092 67.3713 67.203 67.843C67.2969 68.3147 67.2488 68.8037 67.0648 69.248C66.8808 69.6924 66.5692 70.0723 66.1694 70.3396C65.7696 70.6069 65.2995 70.7497 64.8185 70.7499Z" fill="white"/>
<path d="M59.6577 34.9681L58.2785 39.7936C58.2348 39.9476 58.2415 40.1115 58.2976 40.2614C58.3538 40.4112 58.4563 40.5392 58.5904 40.6266C58.7245 40.714 58.883 40.7562 59.0428 40.7471C59.2026 40.738 59.3552 40.678 59.4785 40.5759L63.5 37.2249L67.5185 40.5744C67.6417 40.6763 67.7942 40.7363 67.9539 40.7454C68.1136 40.7545 68.2719 40.7123 68.406 40.6251C68.54 40.5378 68.6426 40.41 68.6988 40.2603C68.755 40.1105 68.7619 39.9468 68.7185 39.7929L67.34 34.9666L70.778 31.5286C70.8822 31.4238 70.9531 31.2905 70.9818 31.1455C71.0105 31.0005 70.9957 30.8502 70.9393 30.7136C70.8829 30.577 70.7874 30.4601 70.6647 30.3776C70.5421 30.2951 70.3978 30.2506 70.25 30.2499H66.2142L64.175 26.1646C64.1057 26.0484 64.0074 25.9521 63.8897 25.8853C63.772 25.8185 63.639 25.7833 63.5037 25.7833C63.3684 25.7833 63.2354 25.8185 63.1177 25.8853C63.0001 25.9521 62.9018 26.0484 62.8325 26.1646L60.7872 30.2499H56.75C56.6016 30.2499 56.4567 30.2939 56.3334 30.3763C56.2101 30.4587 56.114 30.5759 56.0572 30.7129C56.0005 30.8499 55.9856 31.0007 56.0145 31.1461C56.0435 31.2916 56.1149 31.4252 56.2197 31.5301L59.6577 34.9681ZM61.25 31.7499C61.39 31.7506 61.5274 31.7122 61.6467 31.6389C61.766 31.5656 61.8624 31.4604 61.925 31.3351L63.5 28.1769L65.0787 31.3351C65.141 31.4598 65.2368 31.5646 65.3554 31.6379C65.474 31.7112 65.6106 31.7499 65.75 31.7499H68.4395L65.9697 34.2196C65.8752 34.3141 65.8076 34.4321 65.774 34.5615C65.7403 34.6908 65.7419 34.8268 65.7785 34.9554L66.6095 37.8654L63.9845 35.6739C63.8496 35.5614 63.6796 35.4998 63.5041 35.4998C63.3285 35.4998 63.1585 35.5614 63.0237 35.6739L60.3935 37.8654L61.2245 34.9561C61.2612 34.8275 61.2628 34.6913 61.2292 34.5618C61.1955 34.4323 61.1279 34.3142 61.0332 34.2196L58.5605 31.7499H61.25Z" fill="white"/>
<path d="M73.1937 45.7126C73.1369 45.5755 73.0406 45.4583 72.9171 45.3759C72.7936 45.2936 72.6484 45.2497 72.5 45.2499H68.4642L66.425 41.1646C66.3557 41.0484 66.2574 40.9521 66.1397 40.8853C66.022 40.8185 65.889 40.7833 65.7537 40.7833C65.6184 40.7833 65.4854 40.8185 65.3677 40.8853C65.2501 40.9521 65.1518 41.0484 65.0825 41.1646L63.0372 45.2499H59C58.8516 45.2499 58.7067 45.2939 58.5834 45.3763C58.4601 45.4587 58.364 45.5759 58.3072 45.7129C58.2505 45.8499 58.2356 46.0007 58.2645 46.1461C58.2935 46.2916 58.3649 46.4252 58.4697 46.5301L61.9077 49.9681L60.5285 54.7936C60.4848 54.9476 60.4915 55.1115 60.5476 55.2614C60.6038 55.4112 60.7063 55.5392 60.8404 55.6266C60.9745 55.714 61.133 55.7562 61.2928 55.7471C61.4526 55.738 61.6052 55.678 61.7285 55.5759L65.75 52.2249L69.7685 55.5744C69.8917 55.6763 70.0442 55.7363 70.2039 55.7454C70.3636 55.7545 70.5219 55.7123 70.656 55.6251C70.79 55.5378 70.8926 55.41 70.9488 55.2603C71.005 55.1105 71.0119 54.9468 70.9685 54.7929L69.59 49.9666L73.028 46.5286C73.1331 46.4242 73.205 46.291 73.2345 46.1457C73.264 46.0005 73.2498 45.8498 73.1937 45.7126ZM68.2205 49.2196C68.1259 49.3141 68.0583 49.4321 68.0247 49.5615C67.9911 49.6908 67.9926 49.8268 68.0292 49.9554L68.8602 52.8654L66.2352 50.6739C66.1004 50.5614 65.9304 50.4998 65.7548 50.4998C65.5793 50.4998 65.4093 50.5614 65.2745 50.6739L62.6442 52.8654L63.4752 49.9561C63.5119 49.8275 63.5136 49.6913 63.4799 49.5618C63.4463 49.4323 63.3786 49.3142 63.284 49.2196L60.8105 46.7499H63.5C63.64 46.7506 63.7774 46.7122 63.8967 46.6389C64.016 46.5656 64.1124 46.4604 64.175 46.3351L65.75 43.1769L67.3287 46.3351C67.391 46.4598 67.4868 46.5646 67.6054 46.6379C67.724 46.7112 67.8606 46.7499 68 46.7499H70.6895L68.2205 49.2196Z" fill="white"/>
<path d="M47.75 67.7499H29.75V69.2499H47.75V67.7499Z" fill="white"/>
<path d="M46.25 64.7499H31.25V66.2499H46.25V64.7499Z" fill="white"/>
</g>
<defs>
<clipPath id="clip0_1_145">
<rect width="48" height="48" fill="white" transform="translate(26 24.9999)"/>
</clipPath>
</defs>
</svg>
