<svg width="99" height="99" viewBox="0 0 99 99" fill="none" xmlns="http://www.w3.org/2000/svg">
<circle cx="49.5" cy="49.5" r="46" fill="#2378C9" stroke="#67A9E9" stroke-width="7"/>
<g clip-path="url(#clip0_1_110)">
<path d="M68.8785 34.1814H70.3616C70.879 34.1814 71.2985 33.7619 71.2985 33.2446C71.2985 32.7272 70.879 32.3077 70.3616 32.3077H66.8014C66.2841 32.3077 65.8646 32.7272 65.8646 33.2446V36.8047C65.8646 37.3221 66.2841 37.7416 66.8014 37.7416C67.3188 37.7416 67.7383 37.3221 67.7383 36.8047V35.7739C70.581 39.5796 72.1262 44.1972 72.1262 48.9999C72.1262 61.2004 62.2005 71.1261 50 71.1261C37.7995 71.1261 27.8738 61.2004 27.8738 48.9999C27.8738 36.7994 37.7995 26.8736 50 26.8736C50.9023 26.8736 51.8104 26.9285 52.6994 27.0365C53.2123 27.0985 53.6801 26.7332 53.7425 26.2195C53.805 25.7059 53.4392 25.2388 52.9255 25.1764C51.9618 25.0593 50.9776 24.9999 50 24.9999C43.5894 24.9999 37.5624 27.4963 33.0294 32.0293C28.4964 36.5623 26 42.5892 26 48.9999C26 55.4105 28.4964 61.4375 33.0294 65.9704C37.5624 70.5035 43.5894 72.9999 50 72.9999C56.4106 72.9999 62.4376 70.5035 66.9706 65.9704C71.5036 61.4375 74 55.4105 74 48.9999C74 43.5902 72.1927 38.3969 68.8785 34.1814Z" fill="white"/>
<path d="M36.1626 39.148C35.7253 38.8713 35.1466 39.0015 34.8698 39.4385C32.731 42.8165 31.7841 46.879 32.2038 50.8778C32.6296 54.9358 34.456 58.7626 37.3467 61.6533C40.8352 65.1418 45.4176 66.8861 50.0001 66.8861C54.5826 66.8861 59.1649 65.1419 62.6535 61.6533C69.6306 54.6763 69.6306 43.3237 62.6535 36.3467C59.7672 33.4605 55.9467 31.6347 51.8954 31.2056C47.9041 30.7826 43.846 31.722 40.4693 33.8503C40.0315 34.1263 39.9005 34.7048 40.1763 35.1425C40.4522 35.5803 41.0307 35.7114 41.4684 35.4355C47.8334 31.4238 56 32.3432 61.3284 37.6716C67.5749 43.9181 67.5749 54.0818 61.3284 60.3283C55.082 66.5749 44.9181 66.5749 38.6717 60.3283C33.4169 55.0735 32.4838 46.7096 36.453 40.441C36.7297 40.0037 36.5997 39.4249 36.1626 39.148Z" fill="white"/>
<path d="M62.1796 49.9519H63.335C63.8523 49.9519 64.2718 49.5324 64.2718 49.015C64.2718 48.4977 63.8523 48.0781 63.335 48.0781H62.1796C61.6622 48.0781 61.2427 48.4977 61.2427 49.015C61.2427 49.5324 61.6621 49.9519 62.1796 49.9519Z" fill="white"/>
<path d="M35.7281 48.9847C35.7281 49.5021 36.1477 49.9216 36.665 49.9216H37.8204C38.3377 49.9216 38.7573 49.5021 38.7573 48.9847C38.7573 48.4674 38.3377 48.0479 37.8204 48.0479H36.665C36.1477 48.0479 35.7281 48.4673 35.7281 48.9847Z" fill="white"/>
<path d="M50.9521 36.8203V35.6649C50.9521 35.1476 50.5325 34.728 50.0152 34.728C49.4978 34.728 49.0783 35.1476 49.0783 35.6649V36.8203C49.0783 37.3376 49.4978 37.7572 50.0152 37.7572C50.5325 37.7572 50.9521 37.3376 50.9521 36.8203Z" fill="white"/>
<path d="M49.0479 61.1794V62.3348C49.0479 62.8522 49.4675 63.2717 49.9848 63.2717C50.5022 63.2717 50.9217 62.8522 50.9217 62.3348V61.1794C50.9217 60.6621 50.5022 60.2426 49.9848 60.2426C49.4675 60.2426 49.0479 60.662 49.0479 61.1794Z" fill="white"/>
<path d="M45.304 42.9788C44.938 42.6131 44.345 42.6131 43.9789 42.9788C43.6131 43.3447 43.6131 43.9379 43.9789 44.3039L47.1541 47.4791C46.9108 47.9325 46.7724 48.4504 46.7724 48.9999C46.7724 50.7796 48.2203 52.2275 50 52.2275C51.7797 52.2275 53.2276 50.7796 53.2276 48.9999C53.2276 48.4504 53.0891 47.9325 52.8459 47.4791L59.2526 41.0724C59.6184 40.7065 59.6184 40.1133 59.2526 39.7473C58.8866 39.3816 58.2936 39.3816 57.9275 39.7473L51.5208 46.154C51.0674 45.9107 50.5496 45.7724 50 45.7724C49.4504 45.7724 48.9326 45.9108 48.4792 46.154L45.304 42.9788ZM51.3538 48.9999C51.3538 49.7464 50.7465 50.3537 50 50.3537C49.2535 50.3537 48.6462 49.7464 48.6462 48.9999C48.6462 48.2534 49.2535 47.6461 50 47.6461C50.7465 47.6461 51.3538 48.2534 51.3538 48.9999Z" fill="white"/>
<path d="M38.6712 37.671C38.8464 37.4968 38.9465 37.2551 38.9465 37.0087C38.9465 36.7623 38.8464 36.5215 38.6712 36.3463C38.4969 36.1721 38.2561 36.0718 38.0088 36.0718C37.7624 36.0718 37.5207 36.172 37.3464 36.3463C37.1723 36.5205 37.0719 36.7623 37.0719 37.0087C37.0719 37.256 37.1722 37.4968 37.3464 37.671C37.5207 37.8452 37.7624 37.9455 38.0088 37.9455C38.2561 37.9455 38.4969 37.8452 38.6712 37.671Z" fill="white"/>
<path d="M56.4898 27.7991C56.7372 27.7991 56.979 27.6997 57.1531 27.5246C57.3274 27.3503 57.4277 27.1094 57.4277 26.8622C57.4277 26.6158 57.3275 26.3741 57.1531 26.1998C56.979 26.0256 56.7372 25.9253 56.4898 25.9253C56.2434 25.9253 56.0017 26.0255 55.8275 26.1998C55.6533 26.3741 55.5529 26.6158 55.5529 26.8622C55.5529 27.1095 55.6532 27.3503 55.8275 27.5246C56.0017 27.6997 56.2434 27.7991 56.4898 27.7991Z" fill="white"/>
</g>
<defs>
<clipPath id="clip0_1_110">
<rect width="48" height="48" fill="white" transform="translate(26 24.9999)"/>
</clipPath>
</defs>
</svg>
