<svg width="22" height="20" viewBox="0 0 22 20" fill="none" xmlns="http://www.w3.org/2000/svg">
<path d="M21.9028 3.70671C21.7727 3.49513 21.5347 3.37521 21.2869 3.39669L20.1899 3.49225L21.2385 1.37849C21.3634 1.12674 21.314 0.823421 21.1159 0.624175C20.9176 0.424929 20.6146 0.37414 20.3622 0.497718L17.587 1.85686C15.8724 0.951683 13.7303 1.22037 12.2563 2.5631C11.0261 3.68372 10.3795 5.40707 10.5001 7.12565C7.28474 6.80338 4.5631 4.96299 2.95375 1.98929C2.84697 1.79202 2.64678 1.66299 2.42304 1.64713C2.19887 1.63153 1.98291 1.73088 1.84945 1.91122C0.851289 3.25966 0.78125 5.10852 1.56375 6.62957C1.34805 6.57509 1.11851 6.50136 0.863964 6.41632C0.645898 6.3434 0.405488 6.39011 0.230476 6.5393C0.0554644 6.68848 -0.0286684 6.91841 0.00875738 7.14533C0.31839 9.02255 1.41306 10.4653 3.1423 11.3192C2.91714 11.3976 2.68739 11.4613 2.45377 11.51C2.22165 11.5584 2.0337 11.7282 1.96216 11.9543C1.89062 12.1803 1.94656 12.4273 2.10855 12.6005C3.35383 13.9316 5.15268 14.5867 6.43039 14.901C4.97762 16.0387 3.40939 16.2291 1.13059 16.1508C0.8668 16.1428 0.623769 16.2914 0.512867 16.5305C0.402007 16.7697 0.445019 17.052 0.622179 17.2473C1.57213 18.2944 5.03309 19.4751 8.67134 19.5636C8.81525 19.5671 8.96203 19.569 9.1119 19.569C11.6664 19.5689 15.0425 19.0213 17.4658 16.598C19.3001 14.7639 20.4473 12.6523 20.8757 10.3223C21.2217 8.44041 21.003 6.93341 20.8979 6.20912C20.8902 6.15589 20.8819 6.09938 20.8752 6.04997L21.9014 4.3961C22.0323 4.18512 22.0328 3.91829 21.9028 3.70671ZM19.5994 6.3975C19.7941 7.73916 20.3864 11.8219 16.5381 15.6702C14.3011 17.9071 11.0429 18.3088 8.70323 18.2519C6.70685 18.2034 4.92116 17.8216 3.62694 17.3861C4.15241 17.3217 4.62068 17.2222 5.0627 17.0849C6.28125 16.7061 7.31069 16.0246 8.30233 14.9401C8.46763 14.7593 8.51842 14.5016 8.43416 14.2716C8.34989 14.0416 8.1445 13.8778 7.90156 13.8466C7.27598 13.7665 5.39627 13.45 3.91608 12.429C4.34263 12.2546 4.75401 12.0362 5.14683 11.7757C5.36232 11.6327 5.47378 11.3765 5.43133 11.1214C5.38892 10.8663 5.20067 10.6599 4.95051 10.5943C3.739 10.2767 2.27686 9.56597 1.60264 7.97944C2.03319 8.05489 2.50133 8.07315 3.00063 7.96122C3.23206 7.9094 3.41751 7.73666 3.48557 7.50944C3.55368 7.28223 3.49387 7.03593 3.32912 6.86534C2.4902 5.99643 2.17649 4.74423 2.44564 3.67272C3.32711 4.96097 4.44382 6.04516 5.72326 6.84674C7.35998 7.87219 9.27028 8.4389 11.2477 8.48544C11.449 8.48969 11.642 8.40186 11.7701 8.24597C11.8982 8.09012 11.9474 7.884 11.9036 7.68708C11.5634 6.1576 12.0486 4.52711 13.1399 3.53312C14.2717 2.50208 15.9444 2.34568 17.2076 3.15301C17.4004 3.27629 17.6438 3.29009 17.8494 3.18937L19.2047 2.52559L18.4953 3.95563C18.3899 4.16811 18.4074 4.42094 18.5411 4.61683C18.6747 4.81273 18.9034 4.92148 19.14 4.90073L20.0957 4.8175L19.6554 5.52712C19.5077 5.7653 19.5383 5.97662 19.5994 6.3975Z" fill="white"/>
</svg>
