<svg width="24" height="22" viewBox="0 0 24 22" fill="none" xmlns="http://www.w3.org/2000/svg">
<path d="M23.6608 4.26924C23.5216 4.04295 23.2671 3.91469 23.0021 3.93767L21.8289 4.03987L22.9503 1.77917C23.0839 1.50991 23.0311 1.18551 22.8192 0.972411C22.6071 0.759314 22.283 0.704994 22.0131 0.837163L19.045 2.29079C17.2112 1.32269 14.9202 1.61005 13.3437 3.04612C12.028 4.24465 11.3364 6.08781 11.4654 7.92586C8.02652 7.58119 5.11567 5.61285 3.39444 2.43243C3.28024 2.22145 3.06613 2.08344 2.82684 2.06648C2.58709 2.0498 2.35611 2.15605 2.21338 2.34893C1.14582 3.79112 1.07091 5.76851 1.90782 7.3953C1.67712 7.33703 1.43162 7.25817 1.15938 7.16722C0.926152 7.08923 0.669028 7.13919 0.48185 7.29874C0.294672 7.4583 0.20469 7.70421 0.244718 7.94691C0.575876 9.95463 1.74665 11.4976 3.5961 12.411C3.35529 12.4948 3.10956 12.5629 2.8597 12.615C2.61145 12.6668 2.41043 12.8484 2.33392 13.0902C2.2574 13.3319 2.31724 13.5961 2.49049 13.7813C3.82234 15.2049 5.74623 15.9056 7.11278 16.2417C5.55901 17.4585 3.88176 17.6621 1.44453 17.5784C1.16241 17.5699 0.902484 17.7288 0.783872 17.9845C0.665306 18.2403 0.711308 18.5423 0.900784 18.7511C1.91678 19.871 5.61834 21.1338 9.50952 21.2285C9.66342 21.2322 9.82041 21.2342 9.9807 21.2342C12.7128 21.2342 16.3236 20.6485 18.9154 18.0567C20.8771 16.0951 22.1041 13.8368 22.5623 11.3447C22.9323 9.33202 22.6984 7.72025 22.5861 6.94562C22.5778 6.88868 22.569 6.82825 22.5618 6.7754L23.6593 5.00656C23.7993 4.78091 23.7999 4.49553 23.6608 4.26924ZM21.1972 7.14709C21.4055 8.58202 22.039 12.9486 17.9231 17.0644C15.5307 19.4568 12.0459 19.8864 9.54361 19.8256C7.40846 19.7737 5.49862 19.3653 4.11443 18.8996C4.67643 18.8307 5.17725 18.7243 5.65 18.5774C6.95327 18.1723 8.05428 17.4434 9.11485 16.2835C9.29164 16.0902 9.34596 15.8146 9.25584 15.5686C9.16572 15.3226 8.94605 15.1474 8.68622 15.1141C8.01714 15.0283 6.00676 14.6899 4.42367 13.5979C4.87987 13.4113 5.31986 13.1778 5.73998 12.8992C5.97045 12.7462 6.08966 12.4722 6.04426 12.1994C5.9989 11.9266 5.79757 11.7058 5.53001 11.6356C4.23429 11.2959 2.6705 10.5358 1.94941 8.839C2.40988 8.9197 2.91057 8.93923 3.44458 8.81952C3.6921 8.76409 3.89044 8.57935 3.96324 8.33634C4.03608 8.09332 3.97211 7.8299 3.79591 7.64746C2.89867 6.71814 2.56315 5.37889 2.85101 4.23289C3.79375 5.61069 4.9881 6.77025 6.35648 7.62756C8.10699 8.7243 10.1501 9.33041 12.265 9.38018C12.4802 9.38473 12.6867 9.29079 12.8237 9.12407C12.9607 8.95738 13.0133 8.73693 12.9665 8.52632C12.6026 6.89052 13.1216 5.14668 14.2887 4.08358C15.4992 2.98087 17.2882 2.81359 18.6392 3.67705C18.8455 3.8089 19.1057 3.82365 19.3256 3.71593L20.7751 3.00601L20.0165 4.53546C19.9037 4.76271 19.9224 5.03312 20.0654 5.24263C20.2083 5.45214 20.4529 5.56846 20.7059 5.54626L21.7281 5.45725L21.2572 6.21621C21.0992 6.47094 21.1319 6.69695 21.1972 7.14709Z" fill="#302D2D"/>
</svg>
