<svg width="24" height="16" viewBox="0 0 24 16" fill="none" xmlns="http://www.w3.org/2000/svg">
<path d="M12.1422 15.3529C15.5461 15.3529 14.3324 13.198 14.5952 12.5783C14.5912 12.1156 14.5873 11.6705 14.603 11.3999C14.8187 11.4607 15.3275 11.7185 16.3785 12.7401C18.001 14.3774 18.4157 15.3529 19.7265 15.3529H22.1393C22.904 15.3529 23.302 15.0362 23.501 14.7705C23.6932 14.5136 23.8814 14.0627 23.6755 13.3607C23.1373 11.6705 19.9981 8.75187 19.803 8.44403C19.8324 8.38717 19.8795 8.31168 19.904 8.27246H19.902C20.5216 7.45384 22.8863 3.9107 23.2344 2.49305C23.2354 2.49109 23.2363 2.48815 23.2363 2.48521C23.4246 1.83815 23.252 1.41854 23.0736 1.18129C22.805 0.826385 22.3775 0.646973 21.8001 0.646973H19.3873C18.5795 0.646973 17.9667 1.05384 17.6569 1.79599C17.1383 3.11462 15.6814 5.82638 14.5893 6.78619C14.5559 5.42638 14.5785 4.38815 14.5961 3.61658C14.6314 2.11168 14.7452 0.646973 13.1834 0.646973H9.39123C8.4128 0.646973 7.47653 1.7156 8.49025 2.98423C9.37653 4.09599 8.80888 4.7156 9.00006 7.79991C8.25496 7.00089 6.92947 4.84305 5.99221 2.08521C5.72947 1.33913 5.33143 0.647953 4.21084 0.647953H1.7981C0.819665 0.647953 0.235352 1.18129 0.235352 2.07442C0.235352 4.08031 4.67555 15.3529 12.1422 15.3529ZM4.21084 2.11854C4.42359 2.11854 4.44516 2.11854 4.603 2.56658C5.5628 5.39305 7.71574 9.5754 9.28829 9.5754C10.4697 9.5754 10.4697 8.36462 10.4697 7.90874L10.4687 4.27933C10.404 3.07835 9.96673 2.48031 9.67947 2.11756L13.1187 2.12148C13.1206 2.13815 13.0991 6.13619 13.1285 7.10482C13.1285 8.48031 14.2206 9.26854 15.9255 7.54305C17.7246 5.51266 18.9687 2.47737 19.0187 2.35384C19.0922 2.17736 19.1559 2.11756 19.3873 2.11756H21.8001H21.8099C21.8089 2.1205 21.8089 2.12344 21.8079 2.12638C21.5873 3.1558 19.4099 6.43619 18.6814 7.45482C18.6697 7.4705 18.6589 7.48717 18.6481 7.50384C18.3275 8.02737 18.0667 8.6058 18.6922 9.41952H18.6932C18.7501 9.48815 18.8981 9.64893 19.1138 9.87246C19.7844 10.5646 22.0844 12.9313 22.2883 13.8725C22.153 13.894 22.0059 13.8783 19.7265 13.8832C19.2412 13.8832 18.8618 13.1578 17.4138 11.697C16.1118 10.4303 15.2667 9.91266 14.4971 9.91266C13.003 9.91266 13.1118 11.1254 13.1255 12.5921C13.1305 14.1823 13.1206 13.6793 13.1314 13.7793C13.0442 13.8136 12.7942 13.8823 12.1422 13.8823C5.92163 13.8823 1.87065 4.00874 1.71476 2.12148C1.76868 2.11658 2.51084 2.11952 4.21084 2.11854Z" fill="#302D2D"/>
</svg>
